<svg width="312" height="70" viewBox="0 0 312 70" fill="none" xmlns="http://www.w3.org/2000/svg">
<path d="M38.4 35.664C28.48 35.664 23.52 45.232 23.52 64.368V71.952C23.52 81.04 24.832 88.176 27.456 93.36C30.08 98.48 33.952 101.04 39.072 101.04C46.112 101.04 52.576 94.192 58.464 80.496H60.192L59.52 101.904H58.464C58.08 101.2 57.728 100.72 57.408 100.464C57.088 100.144 56.608 99.984 55.968 99.984C55.392 99.984 53.088 100.496 49.056 101.52C45.024 102.48 40.928 102.96 36.768 102.96C26.336 102.96 18.24 100.144 12.48 94.512C6.784 88.88 3.936 80.432 3.936 69.168C3.936 57.84 6.912 49.104 12.864 42.96C18.88 36.816 26.944 33.744 37.056 33.744C40.96 33.744 44.768 34.256 48.48 35.28C52.256 36.24 54.464 36.72 55.104 36.72C55.744 36.72 56.224 36.592 56.544 36.336C56.864 36.016 57.216 35.504 57.6 34.8H58.656L59.424 55.632H57.696C54.816 49.168 51.84 44.24 48.768 40.848C45.76 37.392 42.304 35.664 38.4 35.664ZM105.878 100.176L98.8702 79.44H79.8622L72.4702 100.176H79.6702V102H64.9823V100.176H69.4942L93.9742 34.224H101.846L126.038 100.176H130.454V102H99.0623V100.176H105.878ZM89.7502 52.176L80.7263 77.328H98.1023L89.7502 52.176ZM133.463 34.8H162.743V36.624H157.463V66.96L158.23 66.768L185.302 36.624H177.719V34.8H194.519V36.624H188.759L172.246 55.056L195.287 100.176H200.47V102H169.655V100.176H174.167L158.327 69.552L157.463 69.744V100.176H162.743V102H133.463V100.176H138.742V36.624H133.463V34.8ZM203.578 34.8H253.499L254.458 53.808H252.73C250.042 47.344 247.226 42.928 244.282 40.56C241.338 38.128 237.018 36.912 231.323 36.912H227.963V66.576H231.226C234.234 66.576 236.763 65.456 238.811 63.216C240.858 60.912 242.298 57.84 243.13 54H244.571V82.416H242.938C241.786 77.616 240.218 74.192 238.234 72.144C236.314 70.096 233.658 69.072 230.266 69.072H227.963V99.888H231.61C237.498 99.888 242.491 98.128 246.587 94.608C250.746 91.088 253.594 86.576 255.131 81.072H257.051L256.282 102H203.578V99.888H209.242V36.912H203.578V34.8ZM291.731 100.944C294.931 100.944 297.747 100.08 300.179 98.352C302.675 96.624 303.923 94.032 303.923 90.576C303.923 87.056 302.579 84.368 299.891 82.512C297.267 80.656 293.491 79.056 288.563 77.712C283.699 76.304 280.147 75.088 277.907 74.064C275.731 73.04 273.651 71.696 271.667 70.032C267.699 66.704 265.715 61.552 265.715 54.576C265.715 48.88 267.731 43.984 271.763 39.888C275.859 35.792 281.427 33.744 288.467 33.744C291.859 33.744 295.379 34.256 299.027 35.28C302.739 36.24 305.043 36.72 305.939 36.72C306.835 36.72 307.635 36.08 308.339 34.8H309.395L310.067 54.192H308.531C305.459 48.624 302.227 44.176 298.835 40.848C295.507 37.456 291.859 35.76 287.891 35.76C283.987 35.76 280.947 36.688 278.771 38.544C276.595 40.336 275.507 42.768 275.507 45.84C275.507 48.848 276.787 51.184 279.347 52.848C281.971 54.448 285.171 55.76 288.947 56.784C292.723 57.808 295.187 58.512 296.339 58.896C297.555 59.28 299.027 59.824 300.755 60.528C302.547 61.168 303.987 61.872 305.075 62.64C306.227 63.344 307.411 64.272 308.627 65.424C309.907 66.512 310.899 67.728 311.603 69.072C313.331 72.144 314.195 75.792 314.195 80.016C314.195 86.928 312.019 92.496 307.667 96.72C303.379 100.88 297.715 102.96 290.675 102.96C287.027 102.96 282.835 102.48 278.099 101.52C273.427 100.56 270.835 100.08 270.323 100.08C269.427 100.08 268.563 101.04 267.731 102.96H266.387L265.427 80.112H267.059C269.875 85.68 273.459 90.544 277.811 94.704C282.227 98.864 286.867 100.944 291.731 100.944Z" transform="translate(315 103) rotate(180)" fill="black"/>
</svg>
